<svg width="200" height="200" viewBox="0 0 24 24" xmlns="http://www.w3.org/2000/svg">
  <!-- Tooth shape -->
  <path d="M12 2C10.3431 2 9 3.34315 9 5C9 6.65685 10.3431 8 12 8C13.6569 8 15 6.65685 15 5C15 3.34315 13.6569 2 12 2ZM12 6C11.4477 6 11 5.55228 11 5C11 4.44772 11.4477 4 12 4C12.5523 4 13 4.44772 13 5C13 5.55228 12.5523 6 12 6ZM7.85 8.58579C8.07109 8.8047 8.32922 8.95499 8.61652 9.00352C8.83159 9.036 9.07282 9.06015 9.32357 9.06522C9.57339 9.07029 9.82141 9.0562 10.0576 9.02334C10.2906 8.99068 10.5166 8.93142 10.7093 8.86843C10.8878 8.80996 11.042 8.7274 11.1733 8.6127C11.3052 8.49772 11.4052 8.35707 11.4577 8.18841C11.5103 8.01965 11.5103 7.83435 11.4577 7.66582C11.4052 7.49723 11.3052 7.35671 11.1733 7.24146C11.042 7.12662 10.8878 7.04452 10.7093 6.98687C10.5166 6.92455 10.2906 6.86332 10.0576 6.83023C9.82141 6.797 9.57339 6.78299 9.32357 6.78832C9.07282 6.79328 8.83159 6.81743 8.61652 6.84977C8.32922 6.8983 8.07109 7.0486 7.85 7.26751L7.85 8.58579Z" fill="black"/>
  
  <!-- Cross line -->
  <line x1="4" y1="4" x2="20" y2="20" stroke="red" strokeWidth="2"/>
  <line x1="20" y1="4" x2="4" y2="20" stroke="red" strokeWidth="2"/>
</svg>
