<?xml version="1.0" encoding="UTF-8"?>
<svg id="Layer_1" xmlns="http://www.w3.org/2000/svg" xmlns:xlink="http://www.w3.org/1999/xlink" viewBox="0 0 20.27 20.19">
  <defs>
    <style>
      .cls-1, .cls-2 {
        fill: none;
      }

      .cls-1, .cls-2, .cls-3 {
        stroke: #000;
        stroke-linecap: round;
        stroke-linejoin: round;
      }

      .cls-1, .cls-3 {
        stroke-width: .5px;
      }

      .cls-2 {
        stroke-width: 1.5px;
      }

      .cls-3 {
        fill: url(#linear-gradient);
      }
    </style>
    <linearGradient id="linear-gradient" x1="13.61" y1="3.21" x2="20.02" y2="3.21" gradientUnits="userSpaceOnUse">
      <stop offset="0" stop-color="#fff"/>
      <stop offset="0" stop-color="#211915"/>
    </linearGradient>
  </defs>
  <path class="cls-2" d="M6.75,4.44c.5.5,1.5.41,3-.82M9.75,3.61c-.22-.18-.45-.39-.69-.63C6.76.7,3.62,1.15,2.14,2.99c-1.02,1.27-3.62,4.43,2.75,15.69.26.47.79.76,1.35.76.9,0,1.61-.72,1.64-1.56.06-1.78.41-3.84,1.87-3.84s1.81,2.05,1.87,3.84c.03.84.73,1.56,1.64,1.56.57,0,1.09-.29,1.35-.76,6.36-11.26,3.76-14.42,2.75-15.69-1.47-1.84-4.61-2.28-6.92,0-.24.24-.47.44-.69.63Z"/>
  <path class="cls-3" d="M16.15,4.25c-.06-.21-.23-.37-.46-.43l-1.97-.47c-.09-.02-.13-.1-.11-.18.02-.05.06-.09.11-.1l1.97-.47c.23-.05.4-.22.46-.43l.51-1.82c.02-.08.11-.12.2-.1.05.01.1.05.11.1l.51,1.82c.06.21.23.37.46.43l1.97.47c.09.02.14.1.11.18-.02.05-.06.09-.11.1l-1.97.47c-.23.05-.4.22-.46.43l-.51,1.82c-.02.08-.11.12-.2.1-.05-.01-.1-.05-.11-.1l-.51-1.82Z"/>
  <path class="cls-1" d="M19.38.55v1.18"/>
  <path class="cls-1" d="M20.02,1.14h-1.28"/>
  <path class="cls-1" d="M14.25,4.69v.59"/>
  <path class="cls-1" d="M14.57,4.99h-.64"/>
</svg>